# xmcd CD database file
#
# Track frame offsets:
#	6393
#	8186
#	34493
#	64238
#	95457
#	122411
#	139016
#	166902
#	192985
#	216221
#
# Disc length: 3264 seconds
#
# Revision: 0
# Processed by: cddbd v1.5.1PL0 Copyright (c) Steve Scherf et al.
# Submitted via: CDex 1.51
#
DISCID=950c6b0a
DTITLE=Lemon Jelly - '64-'95
DYEAR=2005
DGENRE=Easy Listening
TTITLE0=It Was...
TTITLE1='88 aka Come Down On Me
TTITLE2='68 aka Only Time
TTITLE3='93 aka Don't Stop Now
TTITLE4='95 aka Make Things Right
TTITLE5='79 aka The Shouty Track
TTITLE6='75 aka Stay With You
TTITLE7='76 aka The Slow Train
TTITLE8='90 aka A Man Like Me
TTITLE9='64 aka Go
EXTD=YEAR: 2005
EXTT0=
EXTT1=
EXTT2=
EXTT3=
EXTT4=
EXTT5=
EXTT6=
EXTT7=
EXTT8=
EXTT9=
PLAYORDER=
